<svg id="Camada_1" data-name="Camada 1" xmlns="http://www.w3.org/2000/svg" viewBox="0 0 701.76 701.45"><defs><style>.cls-1{fill:#ff2e56;}</style></defs><title>finished</title><path class="cls-1" d="M251.69,900.46l-75.82-75.83L220.52,780l13.67,13.67L205.76,822.1l15.59,15.59,28.43-28.44L263.56,823l-28.44,28.43,19,19L282.56,842l13.78,13.77Z" transform="translate(-175.87 -199.01)"/><path class="cls-1" d="M312.24,839.91l-75.82-75.82,16.83-16.83,77.68,10.57a47.22,47.22,0,0,1,8.45,2.07q5.12,1.65,11.6,4.4c-2.63-1.86-5.13-3.82-7.51-5.85s-5.23-4.72-8.55-8L292.51,708,308,692.52l75.82,75.82-15.9,15.9-79.44-10.46a47.07,47.07,0,0,1-8.42-2.1q-5.1-1.68-11.73-4.48,3.82,2.7,7.43,5.77t8.68,8.16l43.29,43.3Z" transform="translate(-175.87 -199.01)"/><path class="cls-1" d="M405.67,634.31A47.91,47.91,0,0,0,389.12,638,42.38,42.38,0,0,0,376,647q-12.12,12.12-12.07,26.57t12.28,26.67q12,12,25.66,12.31t25.25-11.22A45.83,45.83,0,0,0,441,669.83l16.52,16.73A60.74,60.74,0,0,1,451.22,702a65.77,65.77,0,0,1-10.44,13.44q-18.13,18.12-41,18.49t-40.24-17q-17.29-17.29-16.88-40.19t18.8-41.27a76.65,76.65,0,0,1,13.2-10.62A75.33,75.33,0,0,1,390,617.47Z" transform="translate(-175.87 -199.01)"/><path class="cls-1" d="M476.83,675.32,401,599.5l44.64-44.64,13.67,13.67L430.89,597l15.59,15.59,28.43-28.43,13.78,13.78-28.44,28.43,19,19,28.43-28.44,13.78,13.78Z" transform="translate(-175.87 -199.01)"/><path class="cls-1" d="M592.21,559.94l-18.69,18.69-55.37-15.48,35.43,35.42-16.21,16.21L461.55,539l23.2-23.2q13.83-13.83,26.08-15.36t23,9.25a28.24,28.24,0,0,1,8.65,18.07,26.06,26.06,0,0,1-5.7,18.65Zm-82.13-4.87,2.43-2.44q9.84-9.84,10.85-15.15T519,526.84c-3.72-3.73-7.51-5.24-11.34-4.56s-8.87,4.17-15.12,10.41l-2.43,2.44Z" transform="translate(-175.87 -199.01)"/><path class="cls-1" d="M656.49,495.66l-18.7,18.7-55.36-15.48,35.42,35.42-16.21,16.21-75.82-75.82,23.2-23.2q13.83-13.83,26.08-15.36t23,9.25a28.24,28.24,0,0,1,8.65,18.07,26,26,0,0,1-5.7,18.64Zm-82.14-4.86,2.43-2.44q9.84-9.84,10.85-15.15t-4.32-10.64Q577.72,457,572,458t-15.12,10.41l-2.43,2.44Z" transform="translate(-175.87 -199.01)"/><path class="cls-1" d="M656.9,495.25l-47-104.67L628.47,372,733.55,418.6,715.11,437l-22.27-10-29.36,29.37,10.82,21.39Zm19.42-77.11-33-16c-1-.48-2.52-1.41-4.66-2.79s-4.7-3.15-7.66-5.29q3,4.35,5.3,7.9t3,4.84l16,32.37Z" transform="translate(-175.87 -199.01)"/><path class="cls-1" d="M741.53,410.63,665.71,334.8l20.66-20.66q12.23-12.22,21-17.56a47.78,47.78,0,0,1,18.08-6.68,46.47,46.47,0,0,1,23.36,2.49,65.14,65.14,0,0,1,35.55,35.71,46.19,46.19,0,0,1,2.25,23.48,48.08,48.08,0,0,1-6.16,16.89q-4.71,8-16.94,20.2l-5.75,5.75Zm2.53-29.89,9-9q12.75-12.74,12.77-24.37t-12.56-24.21q-12.53-12.52-24.18-12.53t-24.4,12.74l-9,9Z" transform="translate(-175.87 -199.01)"/><path class="cls-1" d="M861.26,215.38a55.85,55.85,0,0,1,12.36,18.41,53.36,53.36,0,0,1,4,21.47A59.27,59.27,0,0,1,873,277.21a57.32,57.32,0,0,1-28.28,29.58,59.31,59.31,0,0,1-19,5.43,54.4,54.4,0,0,1-45.42-15.9A55.56,55.56,0,0,1,768,278a53.72,53.72,0,0,1-4-21.58,57.93,57.93,0,0,1,35.56-52.74A58.69,58.69,0,0,1,821.38,199a54.11,54.11,0,0,1,21.55,4A55.8,55.8,0,0,1,861.26,215.38ZM846.19,281.1q10.3-10.31,9.79-24.24t-11.39-24.81q-10.77-10.77-24.91-11.34a31.25,31.25,0,0,0-24.29,9.58q-10.3,10.31-9.76,24.42T797,279.65q11,11,24.84,11.47T846.19,281.1Z" transform="translate(-175.87 -199.01)"/></svg>