<?xml version="1.0" encoding="UTF-8"?>
<svg xmlns="http://www.w3.org/2000/svg" xmlns:xlink="http://www.w3.org/1999/xlink" width="48pt" height="48pt" viewBox="0 0 48 48" version="1.1">
<g id="surface8697112">
<path style=" stroke:none;fill-rule:nonzero;fill:rgb(95.686275%,26.27451%,21.176471%);fill-opacity:1;" d="M 42 37 C 42 39.761719 39.761719 42 37 42 L 11 42 C 8.238281 42 6 39.761719 6 37 L 6 11 C 6 8.238281 8.238281 6 11 6 L 37 6 C 39.761719 6 42 8.238281 42 11 Z M 42 37 "/>
<path style=" stroke:none;fill-rule:nonzero;fill:rgb(100%,100%,100%);fill-opacity:1;" d="M 36.5 25.496094 C 36.222656 24.515625 35.410156 23.738281 34.378906 23.476562 C 32.507812 23 24 23 24 23 C 24 23 15.492188 23 13.621094 23.476562 C 12.589844 23.742188 11.777344 24.515625 11.5 25.5 C 11 27.28125 11 31 11 31 C 11 31 11 34.71875 11.5 36.503906 C 11.777344 37.484375 12.589844 38.261719 13.621094 38.523438 C 15.492188 39 24 39 24 39 C 24 39 32.503906 39 34.378906 38.523438 C 35.410156 38.257812 36.222656 37.484375 36.5 36.5 C 37 34.71875 37 31 37 31 C 37 31 37 27.28125 36.5 25.496094 Z M 36.5 25.496094 "/>
<path style=" stroke:none;fill-rule:nonzero;fill:rgb(95.686275%,26.27451%,21.176471%);fill-opacity:1;" d="M 16.332031 37 L 14.667969 37 L 14.667969 26.65625 L 13 26.65625 L 13 25 L 18 25 L 18 26.65625 L 16.332031 26.65625 Z M 23 37 L 21.5 37 L 21.332031 35.867188 C 20.675781 36.578125 19.890625 37 19.28125 37 C 18.75 37 18.375 36.769531 18.191406 36.347656 C 18.082031 36.082031 18 35.6875 18 35.09375 L 18 27.5 L 19.667969 27.5 L 19.667969 35.257812 C 19.710938 35.496094 19.882812 35.585938 20.101562 35.585938 C 20.433594 35.585938 20.96875 35.222656 21.332031 34.742188 L 21.332031 27.5 L 23 27.5 Z M 35 32.664062 L 35 29.960938 C 35 29.183594 34.808594 28.625 34.46875 28.261719 C 34.007812 27.765625 33.351562 27.5 32.523438 27.5 C 31.683594 27.5 31.03125 27.765625 30.558594 28.261719 C 30.199219 28.621094 30 29.21875 30 29.996094 L 30 34.589844 C 30 35.355469 30.226562 35.902344 30.574219 36.257812 C 31.050781 36.753906 31.699219 37 32.566406 37 C 33.425781 37 34.101562 36.742188 34.550781 36.214844 C 34.75 35.984375 34.882812 35.71875 34.941406 35.429688 C 34.949219 35.296875 35 34.941406 35 34.523438 L 33.332031 34.523438 L 33.332031 35.183594 C 33.332031 35.5625 32.957031 35.878906 32.5 35.878906 C 32.042969 35.878906 31.667969 35.5625 31.667969 35.183594 L 31.667969 32.664062 Z M 31.667969 29.390625 C 31.667969 29.003906 32.042969 28.699219 32.5 28.699219 C 32.957031 28.699219 33.332031 29.003906 33.332031 29.390625 L 33.332031 31.515625 L 31.664062 31.515625 L 31.664062 29.390625 Z M 28.78125 28.492188 C 28.574219 27.847656 28.066406 27.492188 27.433594 27.480469 C 26.625 27.472656 26.289062 27.894531 25.664062 28.625 L 25.664062 25 L 24 25 L 24 37 L 25.5 37 L 25.667969 35.964844 C 26.191406 36.609375 26.875 37 27.433594 37 C 28.066406 37 28.609375 36.667969 28.816406 36.023438 C 28.914062 35.675781 28.992188 35.351562 29 34.625 L 29 30.28125 C 29 29.460938 28.890625 28.839844 28.78125 28.492188 Z M 27.332031 34.410156 C 27.332031 35.277344 27.132812 35.578125 26.683594 35.578125 C 26.425781 35.578125 25.933594 35.402344 25.664062 35.136719 L 25.664062 29.453125 C 25.933594 29.1875 26.425781 28.929688 26.683594 28.929688 C 27.132812 28.929688 27.332031 29.203125 27.332031 30.074219 Z M 27.332031 34.410156 "/>
<path style=" stroke:none;fill-rule:nonzero;fill:rgb(100%,100%,100%);fill-opacity:1;" d="M 15 9 L 16.835938 9 L 18.023438 14.714844 L 18.136719 14.714844 L 19.265625 9.003906 L 21.121094 9 L 19 16.894531 L 19 21 L 17.175781 21 L 17.175781 17.113281 Z M 21.140625 14.082031 C 21.140625 13.410156 21.359375 12.871094 21.796875 12.476562 C 22.234375 12.078125 22.820312 11.875 23.558594 11.875 C 24.234375 11.875 24.785156 12.085938 25.214844 12.503906 C 25.644531 12.921875 25.859375 13.464844 25.859375 14.128906 L 25.863281 18.613281 C 25.863281 19.355469 25.652344 19.9375 25.234375 20.363281 C 24.8125 20.789062 24.234375 21 23.492188 21 C 22.777344 21 22.210938 20.777344 21.78125 20.34375 C 21.351562 19.910156 21.140625 19.320312 21.140625 18.585938 L 21.136719 14.082031 Z M 22.816406 18.746094 C 22.816406 18.980469 22.871094 19.167969 22.992188 19.300781 C 23.109375 19.425781 23.273438 19.492188 23.488281 19.492188 C 23.710938 19.492188 23.882812 19.425781 24.011719 19.289062 C 24.140625 19.160156 24.207031 18.976562 24.207031 18.742188 L 24.203125 14.011719 C 24.203125 13.824219 24.136719 13.671875 24.003906 13.554688 C 23.871094 13.4375 23.699219 13.378906 23.484375 13.378906 C 23.285156 13.378906 23.125 13.4375 23 13.554688 C 22.875 13.671875 22.8125 13.824219 22.8125 14.015625 Z M 32 12 L 32 21 L 30.574219 21 L 30.347656 19.898438 C 30.042969 20.257812 29.726562 20.53125 29.394531 20.714844 C 29.066406 20.902344 28.746094 21 28.4375 21 C 28.054688 21 27.765625 20.867188 27.570312 20.605469 C 27.375 20.347656 27.28125 19.957031 27.28125 19.433594 L 27.277344 12 L 28.929688 12 L 28.933594 18.824219 C 28.933594 19.027344 28.96875 19.179688 29.039062 19.273438 C 29.105469 19.363281 29.222656 19.414062 29.375 19.414062 C 29.496094 19.414062 29.652344 19.351562 29.835938 19.226562 C 30.023438 19.105469 30.191406 18.945312 30.347656 18.757812 L 30.34375 12 Z M 32 12 "/>
</g>
</svg>
