<svg width="160" height="160" viewBox="0 0 160 160" fill="none" xmlns="http://www.w3.org/2000/svg">
<path d="M130 25H30C21.7157 25 15 31.7157 15 40V130C15 138.284 21.7157 145 30 145H130C138.284 145 145 138.284 145 130V40C145 31.7157 138.284 25 130 25Z" stroke="white" stroke-width="8" stroke-linejoin="round"/>
<path d="M92.5 80C96.6421 80 100 76.6421 100 72.5C100 68.3579 96.6421 65 92.5 65C88.3579 65 85 68.3579 85 72.5C85 76.6421 88.3579 80 92.5 80Z" fill="white"/>
<path d="M117.5 80C121.642 80 125 76.6421 125 72.5C125 68.3579 121.642 65 117.5 65C113.358 65 110 68.3579 110 72.5C110 76.6421 113.358 80 117.5 80Z" fill="white"/>
<path d="M92.5 105C96.6421 105 100 101.642 100 97.5C100 93.3579 96.6421 90 92.5 90C88.3579 90 85 93.3579 85 97.5C85 101.642 88.3579 105 92.5 105Z" fill="white"/>
<path d="M117.5 105C121.642 105 125 101.642 125 97.5C125 93.3579 121.642 90 117.5 90C113.358 90 110 93.3579 110 97.5C110 101.642 113.358 105 117.5 105Z" fill="white"/>
<path d="M42.5 105C46.6421 105 50 101.642 50 97.5C50 93.3579 46.6421 90 42.5 90C38.3579 90 35 93.3579 35 97.5C35 101.642 38.3579 105 42.5 105Z" fill="white"/>
<path d="M67.5 105C71.6421 105 75 101.642 75 97.5C75 93.3579 71.6421 90 67.5 90C63.3579 90 60 93.3579 60 97.5C60 101.642 63.3579 105 67.5 105Z" fill="white"/>
<path d="M42.5 130C46.6421 130 50 126.642 50 122.5C50 118.358 46.6421 115 42.5 115C38.3579 115 35 118.358 35 122.5C35 126.642 38.3579 130 42.5 130Z" fill="white"/>
<path d="M67.5 130C71.6421 130 75 126.642 75 122.5C75 118.358 71.6421 115 67.5 115C63.3579 115 60 118.358 60 122.5C60 126.642 63.3579 130 67.5 130Z" fill="white"/>
<path d="M92.5 130C96.6421 130 100 126.642 100 122.5C100 118.358 96.6421 115 92.5 115C88.3579 115 85 118.358 85 122.5C85 126.642 88.3579 130 92.5 130Z" fill="white"/>
<path d="M120 15V25M40 15V25V15Z" stroke="white" stroke-width="8" stroke-linecap="round" stroke-linejoin="round"/>
<path d="M145 50H15" stroke="white" stroke-width="8" stroke-linejoin="round"/>
</svg>
