<svg width="173" height="173" viewBox="0 0 173 173" fill="none" xmlns="http://www.w3.org/2000/svg">
<path d="M157.967 84.0773C151.75 55.9716 142.529 38.0431 127.75 33.6742C124.887 32.8392 121.919 32.4227 118.938 32.4375C109.852 32.4375 102.682 37.8438 86.5 37.8438C70.3184 37.8438 63.1349 32.4375 54.0625 32.4375C50.9564 32.4214 47.8632 32.8377 44.8719 33.6742C30.0723 38.0431 20.929 55.9885 14.6408 84.0773C8.2209 112.768 9.38324 135.437 21.9325 139.789C30.7177 142.83 38.5736 136.542 46.014 127.287C54.4612 116.745 64.8649 113.501 86.5 113.501C108.135 113.501 118.133 116.745 126.594 127.287C134.028 136.548 142.174 142.759 150.726 139.843C164.587 135.109 164.391 113.106 157.967 84.0773Z" stroke="white" stroke-width="8" stroke-miterlimit="10"/>
<path d="M98.6641 82.4453C102.396 82.4453 105.422 79.4197 105.422 75.6875C105.422 71.9553 102.396 68.9297 98.6641 68.9297C94.9318 68.9297 91.9062 71.9553 91.9062 75.6875C91.9062 79.4197 94.9318 82.4453 98.6641 82.4453Z" fill="white"/>
<path d="M113.531 97.3125C112.194 97.3125 110.887 96.9157 109.775 96.1724C108.663 95.4291 107.797 94.3727 107.286 93.1369C106.775 91.9011 106.642 90.5414 106.905 89.2301C107.167 87.9187 107.812 86.7146 108.759 85.7702C109.706 84.8258 110.911 84.1835 112.223 83.9247C113.535 83.6658 114.895 83.8021 116.129 84.3161C117.364 84.8302 118.418 85.699 119.158 86.8126C119.899 87.9261 120.292 89.2343 120.289 90.5716C120.285 92.3609 119.571 94.0755 118.304 95.3392C117.037 96.6028 115.321 97.3125 113.531 97.3125Z" fill="white"/>
<path d="M113.531 67.5781C117.263 67.5781 120.289 64.5525 120.289 60.8203C120.289 57.0881 117.263 54.0625 113.531 54.0625C109.799 54.0625 106.773 57.0881 106.773 60.8203C106.773 64.5525 109.799 67.5781 113.531 67.5781Z" fill="white"/>
<path d="M128.398 82.4453C132.131 82.4453 135.156 79.4197 135.156 75.6875C135.156 71.9553 132.131 68.9297 128.398 68.9297C124.666 68.9297 121.641 71.9553 121.641 75.6875C121.641 79.4197 124.666 82.4453 128.398 82.4453Z" fill="white"/>
<path d="M70.2812 75.6875H37.8438M54.0625 59.4688V91.9062V59.4688Z" stroke="white" stroke-width="8" stroke-linecap="round" stroke-linejoin="round"/>
</svg>
