<svg width="224" height="224" viewBox="0 0 224 224" fill="none" xmlns="http://www.w3.org/2000/svg">
<path d="M158.932 72.5C157.98 85.7742 148.183 96 137.5 96C126.817 96 117.004 85.7775 116.068 72.5C115.094 58.6905 124.631 49 137.5 49C150.369 49 159.906 58.9418 158.932 72.5Z" stroke="white" stroke-width="8" stroke-linecap="round" stroke-linejoin="round"/>
<path d="M138 117C116.729 117 96.2733 127.694 91.1488 148.519C90.4699 151.275 92.177 154 94.9742 154H181.029C183.826 154 185.523 151.275 184.854 148.519C179.73 127.36 159.275 117 138 117Z" stroke="white" stroke-width="8" stroke-miterlimit="10"/>
<path d="M92.9454 78.9803C92.1752 89.6203 84.1503 98 75.5 98C66.8497 98 58.8116 89.6236 58.0546 78.9803C57.2679 67.9112 65.0788 60 75.5 60C85.9212 60 93.7321 68.1143 92.9454 78.9803Z" stroke="white" stroke-width="8" stroke-linecap="round" stroke-linejoin="round"/>
<path d="M95 117.712C89.0874 115.031 82.5754 114 75.6735 114C58.64 114 42.2288 122.381 38.1179 138.704C37.5774 140.864 38.9466 143 41.1872 143H77.9665" stroke="white" stroke-width="8" stroke-miterlimit="10" stroke-linecap="round"/>
</svg>
